<svg width="152" height="37" viewBox="0 0 152 37" fill="none" xmlns="http://www.w3.org/2000/svg">
<path fill-rule="evenodd" clip-rule="evenodd" d="M18.2124 21.3072C19.9446 21.3072 23.0434 24.4219 23.8673 25.2459C24.737 26.1155 25.1714 27.42 24.7366 28.7241C24.1242 30.5625 19.082 35.2492 18.2124 36.1189C17.3427 35.2492 12.3005 30.5625 11.6877 28.7241C11.2533 27.42 11.6877 26.1155 12.557 25.2459L12.7439 25.0592C13.7751 24.033 16.5919 21.3072 18.2124 21.3072ZM78.5013 8.73858C83.1553 8.73858 87.0587 12.3793 87.0587 18.5723C87.0587 24.5404 83.0428 28.4061 78.0883 28.4061C75.4235 28.4061 73.3966 27.28 72.0455 25.5914V35.5372H67.3165V9.2645H72.0455V11.9289C73.2846 10.1275 75.6489 8.73858 78.5013 8.73858ZM100.916 8.73858C105.57 8.73858 109.473 12.3793 109.473 18.5723C109.473 24.5404 105.457 28.4061 100.503 28.4061C97.8381 28.4061 95.8112 27.28 94.4601 25.5914V35.5372H89.7311V9.2645H94.4601V11.9289C95.6991 10.1275 98.0635 8.73858 100.916 8.73858ZM52.5124 8.73858C55.4778 8.73858 57.2419 9.71445 58.4049 11.3661V9.2645H63.1344V27.8806H58.4049V25.4785C57.3166 27.28 55.5147 28.4061 52.6627 28.4061C47.558 28.4061 43.6172 24.7654 43.6172 18.5723C43.6172 12.3793 48.1212 8.73858 52.5124 8.73858ZM121.82 8.51567C127.477 8.51567 131.083 12.6928 131.083 17.9301V19.599H116.48C116.783 22.4837 118.796 24.3049 121.642 24.3049C124.26 24.3049 125.779 22.9786 126.842 20.8518L130.519 22.9652C128.848 26.3817 126.155 28.4056 121.439 28.4056C116.317 28.4056 111.764 24.3838 111.764 18.4594C111.764 12.54 116.048 8.51567 121.82 8.51567ZM145.175 8.73867C149.191 8.73867 151.706 11.291 151.706 15.1941V27.8807H146.977V17.1462C146.977 14.7063 145.851 13.1676 143.186 13.1676C140.671 13.1676 138.87 15.2696 138.87 18.4222V27.8807H134.14V9.26417H138.87V12.2669C140.258 10.1275 142.473 8.73867 145.175 8.73867ZM28.39 12.0244C30.2284 12.6367 34.915 17.6789 35.7847 18.5486C34.915 19.4183 30.2284 24.4604 28.39 25.0728C27.0859 25.5076 25.7814 25.0732 24.9117 24.2036C24.0878 23.3796 20.973 20.2808 20.973 18.5486C20.973 16.8164 24.0878 13.7175 24.9117 12.8936C25.7814 12.0239 27.0859 11.5895 28.39 12.0244ZM11.5073 12.8936C12.3312 13.7175 15.4456 16.8164 15.4456 18.5486C15.4456 20.2808 12.3312 23.3796 11.5073 24.2036C10.6376 25.0732 9.3331 25.5076 8.02901 25.0728C6.19061 24.4604 1.50395 19.4183 0.634277 18.5486C1.50395 17.6789 6.19061 12.6367 8.02901 12.0244C9.3331 11.5895 10.6376 12.0239 11.5073 12.8936ZM53.5638 13.168C50.5607 13.168 48.4213 15.4198 48.4213 18.5723C48.4213 21.7253 50.5607 23.9772 53.5638 23.9772C56.5661 23.9772 58.7055 21.7253 58.7055 18.5723C58.7055 15.4198 56.5661 13.168 53.5638 13.168ZM77 13.168C73.9595 13.168 71.7454 15.5323 71.7454 18.5723C71.7454 21.6128 73.9595 23.9772 77 23.9772C80.0405 23.9772 82.2545 21.6128 82.2545 18.5723C82.2545 15.5323 80.0405 13.168 77 13.168ZM99.4146 13.168C96.3741 13.168 94.16 15.5323 94.16 18.5723C94.16 21.6128 96.3741 23.9772 99.4146 23.9772C102.455 23.9772 104.669 21.6128 104.669 18.5723C104.669 15.5323 102.455 13.168 99.4146 13.168ZM121.642 12.161C119.062 12.161 117.201 13.8693 116.48 16.1089H126.576C126.121 13.6796 124.376 12.161 121.642 12.161ZM18.2124 0.978271C19.082 1.84794 24.1242 6.5346 24.7366 8.373C25.1714 9.67709 24.737 10.9816 23.8673 11.8513C23.0434 12.6752 19.9446 15.79 18.2124 15.79C16.4802 15.79 13.3809 12.6752 12.557 11.8513C11.6877 10.9816 11.2533 9.67709 11.6877 8.373C12.3005 6.5346 17.3427 1.84794 18.2124 0.978271Z" fill="white"/>
</svg>

