<svg width="17" height="17" viewBox="0 0 17 17" fill="none" xmlns="http://www.w3.org/2000/svg">
<path fill-rule="evenodd" clip-rule="evenodd" d="M2.28938 0.220703C1.02701 0.220703 0 1.22657 0 2.46293C0 3.69984 1.02701 4.70609 2.28938 4.70609C3.55075 4.70609 4.57692 3.69979 4.57692 2.46293C4.57698 1.22657 3.55075 0.220703 2.28938 0.220703ZM3.65152 5.34686H0.271557C0.121549 5.34686 0 5.46987 0 5.62157V16.606C0 16.7577 0.121549 16.8807 0.271557 16.8807H3.65152C3.80153 16.8807 3.92308 16.7577 3.92308 16.606V5.62157C3.92308 5.46987 3.80153 5.34686 3.65152 5.34686ZM9.68014 6.57883C10.2913 5.92355 11.2989 5.34686 12.662 5.34686C16.4846 5.34686 17 8.06633 17 10.7265V16.6123C17 16.7606 16.878 16.8807 16.7273 16.8807H13.3397C13.189 16.8807 13.067 16.7606 13.067 16.6123V11.3953C13.067 9.93457 12.9573 8.81724 11.5773 8.81724C10.3101 8.81724 9.81637 9.51422 9.81637 11.3032V16.6123C9.81637 16.7605 9.69432 16.8806 9.5437 16.8806H6.15729C6.00666 16.8806 5.88462 16.7605 5.88462 16.6123V5.88191C5.88462 5.73372 6.00666 5.61355 6.15729 5.61355H9.40747C9.5581 5.61355 9.68014 5.73372 9.68014 5.88191V6.57883Z" fill="#D0D3D4"/>
</svg>
