<svg width="18" height="15" viewBox="0 0 18 15" fill="none" xmlns="http://www.w3.org/2000/svg">
<path fill-rule="evenodd" clip-rule="evenodd" d="M6.7152 14.4684C5.93683 14.4684 5.13566 14.4074 4.32968 14.2852C2.91012 14.0698 1.47312 13.3517 1.06649 13.1367L0 12.5727L1.15465 12.2055C2.41684 11.8041 3.18464 11.5551 4.13509 11.1652C3.1834 10.7194 2.44993 9.91763 2.09686 8.88114L1.82825 8.09249L2.04852 8.12503C1.83965 7.92142 1.67472 7.71476 1.54686 7.52683C1.09217 6.8589 0.851434 6.04275 0.902657 5.34335L0.953194 4.65497L1.37932 4.81462C1.19956 4.4863 1.06965 4.13567 0.993294 3.76817C0.807214 2.87193 0.962944 1.91978 1.43192 1.08717L1.80312 0.42814L2.29956 1.00482C3.86963 2.8289 5.85828 3.91094 8.21853 4.22771C8.12213 3.58502 8.19437 2.96477 8.43345 2.40881C8.71182 1.76147 9.20702 1.21254 9.8651 0.821272C10.596 0.386835 11.4823 0.176323 12.3608 0.22852C13.2928 0.283903 14.139 0.621651 14.8111 1.2059C15.1393 1.12343 15.3812 1.03537 15.708 0.916368C15.9046 0.84478 16.1277 0.763498 16.4067 0.670527L17.435 0.327865L16.7645 2.1801C16.8087 2.17651 16.8543 2.17346 16.9019 2.17147L18 2.12339L17.351 2.98124C17.3138 3.03038 17.3043 3.04433 17.2911 3.06359C17.2388 3.13982 17.1737 3.23465 16.2829 4.38509C16.0598 4.67317 15.9485 5.04837 15.9692 5.44177C16.0482 6.93673 15.8585 8.28932 15.4052 9.46181C14.9764 10.5711 14.3121 11.5228 13.4307 12.2906C12.34 13.2405 10.9493 13.8909 9.29697 14.2235C8.48646 14.3866 7.61608 14.4684 6.7152 14.4684Z" fill="#D0D3D4"/>
</svg>
