<svg width="18" height="14" viewBox="0 0 18 14" fill="none" xmlns="http://www.w3.org/2000/svg">
<path fill-rule="evenodd" clip-rule="evenodd" d="M15.138 1.10204C16.2169 1.16279 16.7467 1.32254 17.235 2.19104C17.7435 3.05841 18 4.55241 18 7.18378V7.18716V7.19279C18 9.81178 17.7435 11.317 17.2361 12.1754C16.7479 13.0439 16.218 13.2014 15.1391 13.2745C14.0603 13.3364 11.3501 13.3735 9.00225 13.3735C6.64987 13.3735 3.93862 13.3364 2.86087 13.2734C1.78425 13.2003 1.25437 13.0428 0.761625 12.1743C0.25875 11.3159 0 9.81066 0 7.19166V7.18941V7.18604V7.18266C0 4.55241 0.25875 3.05841 0.761625 2.19104C1.25437 1.32141 1.78537 1.16279 2.862 1.10091C3.93862 1.02891 6.64987 0.998535 9.00225 0.998535C11.3501 0.998535 14.0602 1.02891 15.138 1.10204ZM12.375 7.18604L6.75 3.81104V10.561L12.375 7.18604Z" fill="#D0D3D4"/>
</svg>
