<svg height="512pt" viewBox="0 -20 512 512" width="512pt" xmlns="http://www.w3.org/2000/svg"><path d="m391.503906 226h-144.375c-5.523437 0-10 4.476562-10 10s4.476563 10 10 10h144.375c4.277344 13.882812 17.226563 24 32.496094 24 18.746094 0 34-15.253906 34-34s-15.253906-34-34-34c-15.269531 0-28.21875 10.117188-32.496094 24zm46.496094 10c0 7.71875-6.28125 14-14 14s-14-6.28125-14-14 6.28125-14 14-14 14 6.28125 14 14zm0 0"/><path d="m474 390c-17.488281 0-32.25 11.882812-36.652344 27.992188l-38.285156-.0625-36.988281-37c-1.878907-1.875-4.421875-2.929688-7.074219-2.929688h-79v-29.34375c16.117188-4.402344 28-19.164062 28-36.65625 0-20.953125-17.046875-38-38-38s-38 17.046875-38 38c0 17.492188 11.886719 32.253906 28 36.65625v46.257812c0 31.480469-25.605469 57.085938-57.085938 57.085938-21.78125 0-41.621093-12.425781-51.195312-31.84375 14.175781-5.777344 26.589844-15.621094 35.5-28.632812 3.121094-4.558594 1.957031-10.78125-2.601562-13.902344-4.558594-3.117188-10.78125-1.953125-13.902344 2.605468-11.050782 16.144532-29.3125 25.78125-48.847656 25.78125-32.617188 0-59.152344-26.535156-59.152344-59.152343 0-12.621094 3.867187-24.539063 11.207031-34.652344 8.144531-1.746094 15.753906-5.242187 22.421875-10.296875 6.496094 4.890625 14.566406 7.796875 23.304688 7.796875 21.402343 0 38.8125-17.410156 38.8125-38.808594 0-21.402343-17.410157-38.8125-38.8125-38.8125-21.398438 0-38.808594 17.410157-38.808594 38.8125 0 5.421875 1.125 10.585938 3.140625 15.277344-6.421875 4.761719-14.148438 7.335937-22.332031 7.335937-20.761719.003907-37.648438-16.886718-37.648438-37.644531v-70.832031c0-20.757812 16.886719-37.644531 37.644531-37.644531 11.636719 0 22.433594 5.257812 29.632813 14.421875 3.410156 4.339844 9.695312 5.097656 14.039062 1.6875s5.101563-9.699219 1.691406-14.042969c-5.765624-7.339844-13.046874-13.019531-21.226562-16.789063-5.289062-6.449218-8.1875-14.507812-8.1875-22.90625 0-19.9375 16.222656-36.160156 36.164062-36.160156 5.390626 0 10.648438 1.191406 15.453126 3.464844.71875 10.417969 4.558593 20.25 11.082031 28.363281-1.523438 4.023438-2.367188 8.378907-2.367188 12.933594 0 20.175781 16.414063 36.589844 36.59375 36.589844 20.175781 0 36.59375-16.414063 36.59375-36.589844 0-20.179687-16.417969-36.59375-36.59375-36.59375-8.007812 0-15.414062 2.589844-21.445312 6.96875-2.605469-4.609375-4-9.832031-4-15.257813v-1.542968c.027343-.398438.027343-.800782.011719-1.199219.253906-28.015625 23.117187-50.734375 51.195312-50.734375h8.507812c28.238282 0 51.210938 22.972656 51.210938 51.210938v52.132812c-16.117188 4.402344-28 19.164062-28 36.65625 0 20.953125 17.046875 38 38 38s38-17.046875 38-38c0-17.492188-11.882812-32.253906-28-36.65625v-29.34375h79c2.652344 0 5.195312-1.054688 7.070312-2.929688l36.992188-37 38.285156-.0625c4.402344 16.109376 19.164063 27.992188 36.652344 27.992188 20.953125 0 38-17.046875 38-38s-17.046875-38-38-38c-17.496094 0-32.257812 11.886719-36.65625 28.007812l-42.449219.070313c-2.644531.003906-5.183593 1.058594-7.054687 2.929687l-36.984375 36.992188h-74.855469v-2.789062c0-39.265626-31.945312-71.210938-71.210938-71.210938h-8.507812c-34.117188 0-62.695312 24.121094-69.605469 56.203125-5.433593-1.714844-11.125-2.605469-16.921875-2.605469-30.96875 0-56.160156 25.195313-56.160156 56.164063 0 6.0625.976562 12.015625 2.84375 17.65625-31.226562.648437-56.4375 26.234375-56.4375 57.617187v70.828125c0 28.015625 20.085938 51.410157 46.609375 56.574219-5.140625 10.675781-7.894531 22.464844-7.894531 34.417969 0 43.644531 35.507812 79.152343 79.152344 79.152343 3.441406 0 6.851562-.230468 10.21875-.667968l.339843.769531c12.335938 27.875 40.003907 45.890625 70.488281 45.890625 41.472657 0 75.382813-32.921875 77.007813-74h74.9375l36.980469 36.992188c1.871094 1.871093 4.40625 2.921874 7.054687 2.929687l42.449219.070313c4.398438 16.121093 19.160156 28.007812 36.65625 28.007812 20.953125 0 38-17.046875 38-38s-17.046875-38-38-38zm0-364c9.925781 0 18 8.074219 18 18s-8.074219 18-18 18-18-8.074219-18-18 8.074219-18 18-18zm-190 134c0 9.925781-8.074219 18-18 18s-18-8.074219-18-18 8.074219-18 18-18 18 8.074219 18 18zm-113.480469-58.234375c9.148438 0 16.59375 7.445313 16.59375 16.59375s-7.445312 16.59375-16.59375 16.59375c-9.152343 0-16.59375-7.445313-16.59375-16.59375s7.441407-16.59375 16.59375-16.59375zm-54.871093 150.320313c10.371093 0 18.8125 8.4375 18.8125 18.808593 0 10.371094-8.441407 18.808594-18.8125 18.808594-10.371094 0-18.808594-8.4375-18.808594-18.808594 0-10.371093 8.4375-18.808593 18.808594-18.808593zm132.351562 59.914062c0-9.925781 8.074219-18 18-18s18 8.074219 18 18-8.074219 18-18 18-18-8.074219-18-18zm226 134c-9.925781 0-18-8.074219-18-18s8.074219-18 18-18 18 8.074219 18 18-8.074219 18-18 18zm0 0"/><path d="m195.058594 228.929688c-1.867188 1.859374-2.929688 4.441406-2.929688 7.070312s1.0625 5.210938 2.929688 7.070312c1.863281 1.859376 4.441406 2.929688 7.070312 2.929688 2.632813 0 5.210938-1.070312 7.070313-2.929688 1.859375-1.859374 2.929687-4.441406 2.929687-7.070312s-1.070312-5.210938-2.929687-7.070312c-1.859375-1.859376-4.4375-2.929688-7.070313-2.929688-2.628906 0-5.207031 1.070312-7.070312 2.929688zm0 0"/></svg>