<svg height="512pt" viewBox="0 0 512 512" width="512pt" xmlns="http://www.w3.org/2000/svg"><path d="m502 436h-12.003906v-242.492188c0-26.1875-21.304688-47.492187-47.492188-47.492187h-16.488281v-5.179687c0-5.523438-4.476563-10-10-10h-17.433594c-3.257812-11.933594-7.988281-23.351563-14.132812-34.101563l12.273437-12.269531c1.875-1.875 2.929688-4.417969 2.929688-7.074219 0-2.652344-1.054688-5.195313-2.933594-7.070313l-41.144531-41.113281c-3.902344-3.902343-10.234375-3.902343-14.140625.003907l-12.253906 12.253906c-10.75-6.140625-22.164063-10.871094-34.097657-14.128906v-17.335938c0-5.523438-4.476562-10-10-10h-58.164062c-5.523438 0-10 4.476562-10 10v17.335938c-11.929688 3.257812-23.347657 7.988281-34.097657 14.128906l-12.253906-12.257813c-3.90625-3.902343-10.234375-3.90625-14.140625 0l-41.144531 41.113281c-1.878906 1.875-2.933594 4.417969-2.933594 7.070313s1.054688 5.199219 2.929688 7.074219l12.269531 12.269531c-6.140625 10.75-10.871094 22.167969-14.128906 34.097656h-17.402344c-5.519531 0-9.996094 4.476563-10 9.996094l-.003906 5.183594h-16.519531c-26.1875 0-47.496094 21.308593-47.496094 47.496093v242.492188h-11.996094c-5.523438 0-10 4.476562-10 10v18.253906c0 26.328125 21.417969 47.746094 47.746094 47.746094h416.507812c26.328125 0 47.746094-21.417969 47.746094-47.746094v-18.253906c0-5.523438-4.476562-10-10-10zm-395.988281-285.164062h15.257812c4.714844 0 8.789063-3.292969 9.777344-7.902344 3.242187-15.082032 9.136719-29.308594 17.523437-42.289063 2.558594-3.957031 2.003907-9.164062-1.328124-12.496093l-10.75-10.75 27-26.980469 10.738281 10.742187c3.332031 3.332032 8.542969 3.886719 12.5 1.328125 12.980469-8.390625 27.207031-14.285156 42.289062-17.523437 4.609375-.992188 7.898438-5.066406 7.898438-9.777344v-15.1875h38.164062v15.1875c0 4.710938 3.292969 8.785156 7.898438 9.777344 15.085937 3.238281 29.3125 9.136718 42.289062 17.523437 3.960938 2.558594 9.167969 2.003907 12.5-1.328125l10.742188-10.742187 26.996093 26.980469-10.75 10.75c-3.332031 3.332031-3.886718 8.539062-1.328124 12.496093 8.386718 12.980469 14.285156 27.207031 17.523437 42.289063.992187 4.609375 5.0625 7.902344 9.777344 7.902344h15.285156v38.160156h-15.285156c-4.710938 0-8.785157 3.292968-9.777344 7.902344-3.238281 15.082031-9.132813 29.3125-17.523437 42.289062-2.558594 3.960938-2.003907 9.167969 1.328124 12.5l10.824219 10.824219-26.976562 26.996093-10.832031-10.835937c-3.332032-3.332031-8.542969-3.886719-12.5-1.324219-12.976563 8.386719-27.207032 14.28125-42.289063 17.519532-4.609375.992187-7.898437 5.066406-7.898437 9.777343v15.355469h-38.167969v-15.351562c0-4.714844-3.289063-8.789063-7.898438-9.777344-15.082031-3.242188-29.308593-9.136719-42.289062-17.523438-3.960938-2.558594-9.167969-2.003906-12.5 1.328125l-10.832031 10.832031-26.976563-26.996093 10.820313-10.824219c3.335937-3.332031 3.886718-8.539062 1.328124-12.5-8.386718-12.976562-14.28125-27.207031-17.523437-42.289062-.988281-4.609376-5.0625-7.898438-9.777344-7.898438h-15.277343zm-64.015625 42.671874c0-15.160156 12.335937-27.492187 27.496094-27.492187h16.511718l-.019531 32.976563c0 2.652343 1.050781 5.199218 2.925781 7.074218 1.875 1.878906 4.421875 2.933594 7.074219 2.933594h17.433594c3.257812 11.929688 7.988281 23.347656 14.128906 34.097656l-12.335937 12.339844c-3.90625 3.90625-3.90625 10.234375-.003907 14.140625l41.113281 41.144531c1.875 1.875 4.417969 2.929688 7.070313 2.929688h.003906c2.652344 0 5.195313-1.050782 7.070313-2.925782l12.355468-12.355468c10.75 6.140625 22.167969 10.871094 34.097657 14.128906v17.5c0 5.523438 4.476562 10 10 10h58.164062c5.523438 0 10-4.476562 10-10v-17.5c11.933594-3.257812 23.351563-7.988281 34.101563-14.132812l12.351562 12.355468c1.875 1.875 4.421875 2.929688 7.074219 2.929688s5.195313-1.054688 7.070313-2.933594l41.113281-41.144531c3.902343-3.902344 3.902343-10.234375 0-14.136719l-12.339844-12.339844c6.140625-10.75 10.871094-22.167968 14.132813-34.101562h17.429687c5.523437 0 10-4.476563 10-10v-32.984375h16.488281c15.160156 0 27.492188 12.335937 27.492188 27.496093v242.492188h-428zm450.003906 270.746094c0 15.300782-12.445312 27.746094-27.746094 27.746094h-416.507812c-15.300782 0-27.746094-12.445312-27.746094-27.746094v-8.253906h472zm0 0"/><path d="m185.746094 388.261719h-29c-5.523438 0-10 4.476562-10 10 0 5.519531 4.476562 10 10 10h29c5.523437 0 10-4.480469 10-10 0-5.523438-4.476563-10-10-10zm0 0"/><path d="m109.746094 388.261719h-37c-5.523438 0-10 4.476562-10 10 0 5.519531 4.476562 10 10 10h37c5.523437 0 10-4.480469 10-10 0-5.523438-4.476563-10-10-10zm0 0"/><path d="m185.75 340.261719c-2.628906 0-5.210938 1.066406-7.070312 2.929687-1.871094 1.859375-2.929688 4.4375-2.929688 7.070313 0 2.628906 1.058594 5.207031 2.929688 7.066406 1.859374 1.859375 4.441406 2.933594 7.070312 2.933594s5.210938-1.070313 7.070312-2.933594c1.859376-1.859375 2.929688-4.4375 2.929688-7.066406 0-2.632813-1.070312-5.210938-2.929688-7.070313-1.859374-1.863281-4.441406-2.929687-7.070312-2.929687zm0 0"/><path d="m150.746094 350.261719c0-5.523438-4.476563-10-10-10h-68c-5.523438 0-10 4.476562-10 10 0 5.519531 4.476562 10 10 10h68c5.523437 0 10-4.480469 10-10zm0 0"/><path d="m355.25 388.261719h-29c-5.523438 0-10 4.476562-10 10 0 5.519531 4.476562 10 10 10h29c5.523438 0 10-4.480469 10-10 0-5.523438-4.480469-10-10-10zm0 0"/><path d="m439.25 388.261719h-37c-5.523438 0-10 4.476562-10 10 0 5.519531 4.476562 10 10 10h37c5.523438 0 10-4.480469 10-10 0-5.523438-4.480469-10-10-10zm0 0"/><path d="m439.25 340.261719h-113c-5.523438 0-10 4.476562-10 10 0 5.519531 4.476562 10 10 10h113c5.523438 0 10-4.480469 10-10 0-5.523438-4.480469-10-10-10zm0 0"/><path d="m176.710938 208.550781c26.167968 21.226563 53.582031 32.449219 79.285156 32.449219 32.515625 0 61.058594-17.5625 79.273437-32.296875 10.347657-8.367187 18.355469-16.570313 23.25-21.980469 10.699219-11.820312 10.699219-13.769531 10.699219-16.722656 0-3.078125 0-4.777344-10.707031-16.574219-4.925781-5.421875-12.953125-13.640625-23.226563-21.976562-26.167968-21.226563-53.585937-32.449219-79.289062-32.449219-32.515625 0-61.054688 17.5625-79.273438 32.296875-10.347656 8.367187-18.355468 16.570313-23.25 21.980469-10.695312 11.820312-10.695312 13.769531-10.695312 16.722656 0 3.078125 0 4.777344 10.707031 16.574219 4.925781 5.421875 12.953125 13.640625 23.226563 21.976562zm29.285156-38.550781c0-27.570312 22.433594-50 50-50 27.570312 0 50 22.429688 50 50s-22.429688 50-50 50c-27.566406 0-50-22.429688-50-50zm140.554687.066406c-4.75 5.554688-13.355469 14.703125-24.746093 23.792969 2.710937-7.449219 4.195312-15.484375 4.195312-23.859375 0-8.304688-1.460938-16.269531-4.128906-23.664062 11.25 9.019531 19.855468 18.132812 24.679687 23.730468zm-156.359375-23.929687c-2.710937 7.453125-4.195312 15.488281-4.195312 23.863281 0 8.304688 1.464844 16.273438 4.128906 23.667969-11.253906-9.019531-19.859375-18.132813-24.679688-23.734375 4.75-5.554688 13.355469-14.703125 24.746094-23.796875zm0 0"/><path d="m285.996094 170c0-16.542969-13.457032-30-30-30-16.539063 0-30 13.457031-30 30 0 16.539062 13.460937 30 30 30 16.542968 0 30-13.460938 30-30zm-40 0c0-5.515625 4.488281-10 10-10 5.515625 0 10 4.484375 10 10 0 5.511719-4.484375 10-10 10-5.511719 0-10-4.488281-10-10zm0 0"/></svg>