<svg height="512pt" viewBox="0 -150 512 512" width="512pt" xmlns="http://www.w3.org/2000/svg"><path d="m470 0h-428c-23.160156 0-42 18.839844-42 42v128c0 23.160156 18.839844 42 42 42h265c5.523438 0 10-4.476562 10-10s-4.476562-10-10-10h-95v-172h258c12.132812 0 22 9.867188 22 22v128c0 12.132812-9.867188 22-22 22h-73c-5.523438 0-10 4.476562-10 10s4.476562 10 10 10h73c23.160156 0 42-18.839844 42-42v-128c0-23.160156-18.839844-42-42-42zm-278 192h-150c-12.132812 0-22-9.867188-22-22v-128c0-12.132812 9.867188-22 22-22h150zm0 0"/><path d="m42.929688 169.070312c1.953124 1.953126 4.511718 2.929688 7.070312 2.929688s5.117188-.976562 7.070312-2.929688l35.652344-35.652343c8.097656 5.417969 17.824219 8.582031 28.277344 8.582031 28.121094 0 51-22.878906 51-51s-22.878906-51-51-51-51 22.878906-51 51c0 10.453125 3.164062 20.179688 8.582031 28.277344l-35.652343 35.652344c-3.90625 3.90625-3.90625 10.234374 0 14.140624zm78.070312-109.070312c17.09375 0 31 13.90625 31 31s-13.90625 31-31 31-31-13.90625-31-31 13.90625-31 31-31zm0 0"/><path d="m242 106c0 16.542969 13.457031 30 30 30s30-13.457031 30-30-13.457031-30-30-30-30 13.457031-30 30zm40 0c0 5.515625-4.484375 10-10 10s-10-4.484375-10-10 4.484375-10 10-10 10 4.484375 10 10zm0 0"/><path d="m352 76c-16.542969 0-30 13.457031-30 30s13.457031 30 30 30 30-13.457031 30-30-13.457031-30-30-30zm0 40c-5.515625 0-10-4.484375-10-10s4.484375-10 10-10 10 4.484375 10 10-4.484375 10-10 10zm0 0"/><path d="m462 106c0-16.542969-13.457031-30-30-30s-30 13.457031-30 30 13.457031 30 30 30 30-13.457031 30-30zm-40 0c0-5.515625 4.484375-10 10-10s10 4.484375 10 10-4.484375 10-10 10-10-4.484375-10-10zm0 0"/><path d="m352 192c-2.628906 0-5.210938 1.070312-7.070312 2.929688-1.859376 1.859374-2.929688 4.441406-2.929688 7.070312s1.070312 5.210938 2.929688 7.070312c1.859374 1.859376 4.441406 2.929688 7.070312 2.929688s5.210938-1.070312 7.070312-2.929688c1.859376-1.859374 2.929688-4.441406 2.929688-7.070312s-1.070312-5.210938-2.929688-7.070312c-1.859374-1.859376-4.441406-2.929688-7.070312-2.929688zm0 0"/></svg>