<?xml version="1.0" encoding="UTF-8"?>
<svg width="66px" height="65px" viewBox="0 0 66 65" version="1.1" xmlns="http://www.w3.org/2000/svg" xmlns:xlink="http://www.w3.org/1999/xlink">
    <!-- Generator: Sketch 64 (93537) - https://sketch.com -->
    <title>Group 20</title>
    <desc>Created with Sketch.</desc>
    <defs>
        <polygon id="path-1" points="0.000178723404 0.321747368 41.4765191 0.321747368 41.4765191 34 0.000178723404 34"></polygon>
    </defs>
    <g id="Careers" stroke="none" stroke-width="1" fill="none" fill-rule="evenodd">
        <g id="Part-Time-Jobs" transform="translate(-602.000000, -2498.000000)">
            <g id="Group-20" transform="translate(602.000000, 2498.000000)">
                <g id="Group-3" transform="translate(0.000000, 31.000000)">
                    <mask id="mask-2" fill="white">
                        <use xlink:href="#path-1"></use>
                    </mask>
                    <g id="Clip-2"></g>
                    <path d="M36.6080936,0.321747368 L4.86771064,0.321747368 C2.18417872,0.321747368 0.000178723404,2.50848421 0.000178723404,5.19627368 L0.000178723404,22.2893263 C0.000178723404,24.9771158 2.18417872,27.1629579 4.86771064,27.1629579 C5.56741277,27.1629579 6.13217872,26.5965895 6.13217872,25.8969053 C6.13217872,25.1981158 5.56741277,24.6308526 4.86771064,24.6308526 C3.57822128,24.6308526 2.52911489,23.5804316 2.52911489,22.2893263 L2.52911489,5.19627368 C2.52911489,3.90516842 3.57822128,2.85474737 4.86771064,2.85474737 L36.6080936,2.85474737 C37.897583,2.85474737 38.947583,3.90516842 38.947583,5.19627368 L38.947583,22.2893263 C38.947583,23.5804316 37.897583,24.6308526 36.6080936,24.6308526 L27.553966,24.6308526 C27.2939234,24.6308526 27.0401362,24.7113789 26.8274553,24.8608 L19.0905191,30.2999053 L19.0878383,25.8960105 C19.0869447,25.1972211 18.5212851,24.6308526 17.8233702,24.6308526 L14.5831149,24.6308526 C13.8843064,24.6308526 13.3177532,25.1981158 13.3177532,25.8969053 C13.3177532,26.5956947 13.8843064,27.1629579 14.5831149,27.1629579 L16.5589021,27.1629579 L16.5624766,32.7353789 C16.5633702,33.2069053 16.8260936,33.6399579 17.2452,33.8573789 C17.4283915,33.9531158 17.6285617,34.0005368 17.8269447,34.0005368 C18.0834128,34.0005368 18.3380936,33.9226947 18.5543489,33.7705895 L27.9534128,27.1629579 L36.6080936,27.1629579 C39.2925191,27.1629579 41.4765191,24.9771158 41.4765191,22.2893263 L41.4765191,5.19627368 C41.4765191,2.50848421 39.2925191,0.321747368 36.6080936,0.321747368" id="Fill-1" fill="#003B49" mask="url(#mask-2)"></path>
                </g>
                <path d="M56.5600707,26.4378092 C56.2812721,26.1579505 55.8943463,26 55.5,26 C55.1056537,26 54.7187279,26.1579505 54.4388693,26.4378092 C54.1600707,26.7166078 54,27.1035336 54,27.5 C54,27.8943463 54.1600707,28.280212 54.4388693,28.5600707 C54.7187279,28.8388693 55.1056537,29 55.5,29 C55.8943463,29 56.2812721,28.8388693 56.5600707,28.5600707 C56.8409894,28.280212 57,27.8943463 57,27.5 C57,27.1035336 56.8409894,26.7166078 56.5600707,26.4378092" id="Fill-4" fill="#003B49"></path>
                <path d="M10.5600707,56.4378092 C10.2812721,56.1579505 9.89434629,56 9.5,56 C9.10565371,56 8.71872792,56.1579505 8.43886926,56.4378092 C8.16007067,56.7176678 8,57.1035336 8,57.5 C8,57.8943463 8.16007067,58.2812721 8.43886926,58.5600707 C8.71872792,58.8399293 9.10565371,59 9.5,59 C9.89434629,59 10.2812721,58.8399293 10.5600707,58.5600707 C10.8409894,58.2812721 11,57.8943463 11,57.5 C11,57.1035336 10.8409894,56.7176678 10.5600707,56.4378092" id="Fill-6" fill="#003B49"></path>
                <path d="M59.8539234,0 L30.1460766,0 C26.7572284,0 24,2.72081335 24,6.06490458 L24,22.246913 C24,25.5910042 26.7572284,28.3118175 30.1460766,28.3118175 L39.343474,28.3118175 L48.4349981,34.7633687 C48.6566984,34.9196347 48.9191192,35 49.182445,35 C49.3833326,35 49.5851252,34.9544596 49.7697247,34.8598071 C50.1977421,34.6419277 50.4655923,34.205276 50.4628776,33.7284417 L50.4293963,28.3118175 L52.0745034,28.3118175 C52.7821347,28.3118175 53.354936,27.7456883 53.354936,27.0482957 C53.354936,26.3509032 52.7821347,25.784774 52.0745034,25.784774 L49.1408196,25.784774 C48.7996725,25.784774 48.4730038,25.9187162 48.2323006,26.1580263 C47.9925023,26.3964435 47.8585772,26.7196908 47.860387,27.0563323 L47.886629,31.2612256 L40.503555,26.0231911 C40.2863791,25.8687111 40.0248632,25.784774 39.7561081,25.784774 L30.1460766,25.784774 C28.1688715,25.784774 26.5608653,24.1980049 26.5608653,22.246913 L26.5608653,6.06490458 C26.5608653,4.11381263 28.1688715,2.52704358 30.1460766,2.52704358 L59.8539234,2.52704358 C61.8311285,2.52704358 63.4391347,4.11381263 63.4391347,6.06490458 L63.4391347,22.246913 C63.4391347,24.1980049 61.8311285,25.784774 59.8539234,25.784774 C59.147197,25.784774 58.5734908,26.3509032 58.5734908,27.0482957 C58.5734908,27.7456883 59.147197,28.3118175 59.8539234,28.3118175 C63.2427716,28.3118175 66,25.5910042 66,22.246913 L66,6.06490458 C66,2.72081335 63.2427716,0 59.8539234,0" id="Fill-8" fill="#003B49"></path>
                <path d="M45.4995438,5 C42.4673579,5 40,7.48670062 40,10.5435767 C40,11.2627334 40.5766902,11.8448642 41.2911655,11.8448642 C42.0038158,11.8448642 42.582331,11.2627334 42.582331,10.5435767 C42.582331,8.92225523 43.8908337,7.60257499 45.4995438,7.60257499 C47.1091663,7.60257499 48.417669,8.92225523 48.417669,10.5435767 C48.417669,12.1658178 47.1091663,13.485498 45.4995438,13.485498 C44.7868934,13.485498 44.2083783,14.0676287 44.2083783,14.7867855 L44.2083783,16.6987125 C44.2083783,17.4178693 44.7868934,18 45.4995438,18 C46.2131066,18 46.7907092,17.4178693 46.7907092,16.6987125 L46.7907092,15.9335739 C49.2042306,15.3468449 51,13.1525891 51,10.5435767 C51,7.48670062 48.5326421,5 45.4995438,5" id="Fill-10" fill="#003B49"></path>
                <path d="M46.5611307,20.4388693 C46.2812721,20.1600707 45.8943463,20 45.5,20 C45.1056537,20 44.7187279,20.1600707 44.4399293,20.4388693 C44.1600707,20.7187279 44,21.1056537 44,21.5 C44,21.8954064 44.1600707,22.2812721 44.4399293,22.5621908 C44.7187279,22.8409894 45.1056537,23 45.5,23 C45.8943463,23 46.2812721,22.8409894 46.5611307,22.5621908 C46.8399293,22.2812721 47,21.8954064 47,21.5 C47,21.1056537 46.8399293,20.7187279 46.5611307,20.4388693" id="Fill-12" fill="#003B49"></path>
                <path d="M32.7255343,38 L9.27446565,38 C8.57103267,38 8,38.6710247 8,39.5 C8,40.3279152 8.57103267,41 9.27446565,41 L32.7255343,41 C33.4289673,41 34,40.3279152 34,39.5 C34,38.6710247 33.4289673,38 32.7255343,38" id="Fill-14" fill="#003B49"></path>
                <path d="M32.7255343,44 L9.27446565,44 C8.57103267,44 8,44.6720848 8,45.5 C8,46.3279152 8.57103267,47 9.27446565,47 L32.7255343,47 C33.4289673,47 34,46.3279152 34,45.5 C34,44.6720848 33.4289673,44 32.7255343,44" id="Fill-16" fill="#003B49"></path>
                <path d="M32.7255343,50 L9.27446565,50 C8.57103267,50 8,50.6720848 8,51.5 C8,52.3279152 8.57103267,53 9.27446565,53 L32.7255343,53 C33.4289673,53 34,52.3279152 34,51.5 C34,50.6720848 33.4289673,50 32.7255343,50" id="Fill-18" fill="#003B49"></path>
            </g>
        </g>
    </g>
</svg>