<svg id="Capa_1" enable-background="new 0 0 512 512" height="512" viewBox="0 0 512 512" width="512" xmlns="http://www.w3.org/2000/svg"><g><path d="m323.929 218.929-82.929 82.928-52.929-52.929c-3.906-3.904-10.236-3.904-14.143 0-3.905 3.905-3.905 10.237 0 14.143l60 60c1.954 1.952 4.512 2.929 7.072 2.929s5.118-.977 7.071-2.929l90-90c3.905-3.905 3.905-10.237 0-14.143-3.906-3.904-10.236-3.904-14.142.001z"/><path d="m502.952 194.966-30.368-2.905c-4.514-15.31-10.667-30.12-18.357-44.186l19.368-23.554c3.269-3.977 2.985-9.784-.654-13.423l-72.041-72.029c-3.644-3.646-9.461-3.921-13.435-.643l-23.555 19.433c-14.059-7.674-28.874-13.812-44.204-18.313l-2.953-30.316c-.499-5.123-4.806-9.03-9.953-9.03h-101.88c-5.154 0-9.464 3.917-9.954 9.048l-2.905 30.368c-15.31 4.514-30.12 10.667-44.186 18.357l-23.554-19.368c-3.975-3.267-9.783-2.987-13.423.654l-72.029 72.041c-3.644 3.644-3.922 9.459-.643 13.435l19.433 23.555c-7.674 14.059-13.812 28.874-18.313 44.204l-30.316 2.953c-5.123.499-9.03 4.806-9.03 9.953v101.88c0 5.154 3.917 9.464 9.048 9.954l30.371 2.906c4.525 15.337 10.678 30.147 18.354 44.186l-19.367 23.553c-3.269 3.977-2.985 9.784.654 13.423l72.04 72.029c3.643 3.645 9.46 3.92 13.435.643l23.555-19.433c14.059 7.674 28.874 13.812 44.204 18.313l2.954 30.315c.499 5.123 4.806 9.03 9.953 9.03h101.88c5.154 0 9.464-3.917 9.954-9.048l2.905-30.368c15.31-4.514 30.12-10.667 44.186-18.357l23.554 19.368c3.975 3.268 9.783 2.987 13.423-.654l72.029-72.04c3.644-3.644 3.922-9.459.643-13.435l-19.435-23.555c7.676-14.067 13.815-28.885 18.314-44.203l30.315-2.954c5.123-.499 9.03-4.806 9.03-9.953v-101.88c.001-5.154-3.916-9.464-9.047-9.954zm-10.952 102.761-28.12 2.74c-4.176.407-7.654 3.378-8.709 7.438-4.729 18.202-11.978 35.698-21.546 52.003-2.125 3.622-1.761 8.187.911 11.426l18.027 21.851-59.19 59.199-21.852-17.968c-3.241-2.665-7.799-3.023-11.419-.897-16.307 9.585-33.797 16.851-51.987 21.596-4.063 1.06-7.03 4.544-7.43 8.724l-2.694 28.161h-83.718l-2.74-28.12c-.407-4.176-3.378-7.654-7.438-8.709-18.219-4.733-35.715-11.981-52.001-21.544-3.625-2.128-8.187-1.763-11.428.909l-21.851 18.027-59.199-59.19 17.968-21.852c2.666-3.242 3.023-7.804.896-11.421-9.563-16.26-16.829-33.752-21.596-51.989-1.062-4.061-4.545-7.026-8.723-7.426l-28.161-2.694v-83.718l28.12-2.74c4.176-.407 7.654-3.378 8.709-7.438 4.733-18.219 11.981-35.715 21.544-52.001 2.127-3.622 1.764-8.188-.909-11.428l-18.027-21.851 59.19-59.199 21.852 17.968c3.242 2.665 7.801 3.023 11.419.897 16.307-9.585 33.797-16.851 51.987-21.596 4.063-1.06 7.03-4.544 7.43-8.724l2.694-28.161h83.718l2.74 28.12c.407 4.176 3.378 7.654 7.438 8.709 18.219 4.733 35.715 11.981 52.001 21.544 3.624 2.127 8.188 1.763 11.428-.909l21.851-18.027 59.199 59.19-17.968 21.852c-2.665 3.241-3.023 7.802-.897 11.419 9.585 16.307 16.851 33.797 21.596 51.987 1.06 4.063 4.544 7.03 8.724 7.43l28.161 2.694z"/><circle cx="366" cy="366" r="10"/><path d="m256 90c-91.532 0-166 74.468-166 166s74.468 166 166 166c27.542 0 54.842-6.917 78.949-20.002 4.854-2.635 6.653-8.706 4.019-13.56-2.636-4.854-8.706-6.652-13.56-4.019-21.187 11.502-45.188 17.581-69.408 17.581-80.505 0-146-65.495-146-146s65.495-146 146-146 146 65.495 146 146c0 24.22-6.079 48.221-17.58 69.408-2.635 4.854-.835 10.925 4.019 13.56 4.854 2.634 10.925.835 13.56-4.019 13.084-24.107 20.001-51.407 20.001-78.949 0-91.532-74.468-166-166-166z"/></g></svg>