<?xml version="1.0" encoding="UTF-8"?>
<svg width="40px" height="51px" viewBox="0 0 40 51" version="1.1" xmlns="http://www.w3.org/2000/svg" xmlns:xlink="http://www.w3.org/1999/xlink">
    <title>Group 15</title>
    <defs>
        <polygon id="path-1" points="0 0 40 0 40 51 0 51"></polygon>
        <polygon id="path-3" points="0 0 2 0 2 2 0 2"></polygon>
    </defs>
    <g id="Desktop" stroke="none" stroke-width="1" fill="none" fill-rule="evenodd">
        <g id="Knowledge-Graph-Services" transform="translate(-241.000000, -2196.000000)">
            <g id="Group-15" transform="translate(241.000000, 2196.000000)">
                <g id="Group-3">
                    <mask id="mask-2" fill="white">
                        <use xlink:href="#path-1"></use>
                    </mask>
                    <g id="Clip-2"></g>
                    <path d="M31.3202169,7.73609999 L31.3202169,3.39666036 L36.6244873,8.731729 L32.309866,8.731729 C31.7646253,8.731729 31.3202169,8.28463522 31.3202169,7.73609999 M39.7104498,9.01977261 L31.0339033,0.290798811 C30.8484219,0.104196646 30.5969638,-0.00100189082 30.3343022,-0.00100189082 L2.97019227,-0.00100189082 C1.33198061,-0.00100189082 0,1.34027945 0,2.98838985 L0,48.0121111 C0,49.6589691 1.33198061,51.0002505 2.97019227,51.0002505 L15.5443381,51.0002505 C16.0908236,51.0002505 16.5339873,50.5544091 16.5339873,50.0033691 C16.5339873,49.4535815 16.0908236,49.0077401 15.5443381,49.0077401 L2.97019227,49.0077401 C2.42370677,49.0077401 1.97929828,48.5606463 1.97929828,48.0121111 L1.97929828,2.98838985 C1.97929828,2.43860226 2.42370677,1.99150848 2.97019227,1.99150848 L29.3396737,1.99150848 L29.3396737,7.73609999 C29.3396737,9.3842104 30.6728992,10.7242394 32.309866,10.7242394 L38.0199548,10.7242394 L38.0199548,48.0121111 C38.0199548,48.5606463 37.5767912,49.0077401 37.0303057,49.0077401 L24.4549149,49.0077401 C23.9084294,49.0077401 23.4652658,49.4535815 23.4652658,50.0033691 C23.4652658,50.5544091 23.9084294,51.0002505 24.4549149,51.0002505 L37.0303057,51.0002505 C38.6685173,51.0002505 40.0004979,49.6589691 40.0004979,48.0121111 L40.0004979,9.72360091 C40.0004979,9.45935221 39.8959312,9.20637478 39.7104498,9.01977261" id="Fill-1" fill="#003B49" mask="url(#mask-2)"></path>
                </g>
                <path d="M14.0004191,9 L9.99958089,9 C9.44761106,9 9,9.44751728 9,9.99937146 C9,10.5524827 9.44761106,11 9.99958089,11 L14.0004191,11 C14.5523889,11 15,10.5524827 15,9.99937146 C15,9.44751728 14.5523889,9 14.0004191,9" id="Fill-4" fill="#003B49"></path>
                <path d="M14.0004191,12 L9.99958089,12 C9.44761106,12 9,12.4475173 9,12.9993715 C9,13.5524827 9.44761106,14 9.99958089,14 L14.0004191,14 C14.5523889,14 15,13.5524827 15,12.9993715 C15,12.4475173 14.5523889,12 14.0004191,12" id="Fill-6" fill="#003B49"></path>
                <path d="M14.0004191,17 L9.99958089,17 C9.44761106,17 9,17.4475173 9,17.9993715 C9,18.5524827 9.44761106,19 9.99958089,19 L14.0004191,19 C14.5523889,19 15,18.5524827 15,17.9993715 C15,17.4475173 14.5523889,17 14.0004191,17" id="Fill-8" fill="#003B49"></path>
                <path d="M32.5781932,41.1998405 C33.3551863,41.1998405 33.9879169,41.8284628 33.9879169,42.6004109 C33.9879169,43.3711018 33.3551863,43.999724 32.5781932,43.999724 C31.8012001,43.999724 31.1684696,43.3711018 31.1684696,42.6004109 C31.1684696,41.8284628 31.8012001,41.1998405 32.5781932,41.1998405 L32.5781932,41.1998405 Z M7.01208311,20.9996934 L17.0775605,20.9996934 L17.0775605,7.00027598 L7.01208311,7.00027598 L7.01208311,20.9996934 Z M32.5781932,18.7995155 C33.3551863,18.7995155 33.9879169,19.4281377 33.9879169,20.2000859 C33.9879169,20.972034 33.3551863,21.599399 32.5781932,21.599399 C31.8012001,21.599399 31.1684696,20.972034 31.1684696,20.2000859 C31.1684696,19.4281377 31.8012001,18.7995155 32.5781932,18.7995155 L32.5781932,18.7995155 Z M32.5781932,29.9990494 C33.3551863,29.9990494 33.9879169,30.6276716 33.9879169,31.3996198 C33.9879169,32.1715679 33.3551863,32.7989329 32.5781932,32.7989329 C31.8012001,32.7989329 31.1684696,32.1715679 31.1684696,31.3996198 C31.1684696,30.6276716 31.8012001,29.9990494 32.5781932,29.9990494 L32.5781932,29.9990494 Z M32.5781932,46 C34.4649957,46 36,44.4749624 36,42.6004109 C36,40.7258594 34.4649957,39.1995646 32.5781932,39.1995646 C31.040658,39.1995646 29.7384986,40.2116464 29.3069764,41.5996443 L24.5931339,41.5996443 L24.5931339,32.3991291 L29.3069764,32.3991291 C29.7384986,33.7883843 31.040658,34.7992089 32.5781932,34.7992089 C34.4649957,34.7992089 36,33.2741713 36,31.3996198 C36,29.5250682 34.4649957,28.0000307 32.5781932,28.0000307 C31.040658,28.0000307 29.7384986,29.0108552 29.3069764,30.4001104 L24.5931339,30.4001104 L24.5931339,21.1995952 L29.3069764,21.1995952 C29.7384986,22.5875931 31.040658,23.599675 32.5781932,23.599675 C34.4649957,23.599675 36,22.0746374 36,20.2000859 C36,18.3242771 34.4649957,16.7992395 32.5781932,16.7992395 C31.040658,16.7992395 29.7384986,17.8113213 29.3069764,19.1993192 L24.5931339,19.1993192 L24.5931339,14.0006133 C24.5931339,13.4474257 24.1426297,12.9998467 23.5870923,12.9998467 L19.0909091,12.9998467 L19.0909091,6.00076661 C19.0909091,5.44757904 18.6404049,5 18.0848675,5 L6.00604156,5 C5.45050414,5 5,5.44757904 5,6.00076661 L5,22.00046 C5,22.5523903 5.45050414,22.9999693 6.00604156,22.9999693 L18.0848675,22.9999693 C18.6404049,22.9999693 19.0909091,22.5523903 19.0909091,22.00046 L19.0909091,15.0001227 L22.5797853,15.0001227 L22.5797853,42.6004109 C22.5797853,43.1523412 23.0302894,43.5999203 23.5870923,43.5999203 L29.3069764,43.5999203 C29.7384986,44.9879182 31.040658,46 32.5781932,46 L32.5781932,46 Z" id="Fill-10" fill="#003B49"></path>
                <g id="Group-14" transform="translate(19.000000, 49.000000)">
                    <mask id="mask-4" fill="white">
                        <use xlink:href="#path-3"></use>
                    </mask>
                    <g id="Clip-13"></g>
                    <path d="M1,0 C0.737106918,0 0.479245283,0.106864471 0.293081761,0.292934373 C0.106918239,0.479004275 0,0.736736233 0,0.999497108 C0,1.26225798 0.106918239,1.52124717 0.293081761,1.70731707 C0.479245283,1.89338698 0.737106918,2.00025145 1,2.00025145 C1.26289308,2.00025145 1.52075472,1.89338698 1.70691824,1.70731707 C1.89308176,1.52124717 2,1.26225798 2,0.999497108 C2,0.736736233 1.89308176,0.479004275 1.70691824,0.292934373 C1.52075472,0.106864471 1.26289308,0 1,0" id="Fill-12" fill="#003B49" mask="url(#mask-4)"></path>
                </g>
            </g>
        </g>
    </g>
</svg>