<?xml version="1.0" encoding="UTF-8"?>
<svg width="72px" height="72px" viewBox="0 0 72 72" version="1.1" xmlns="http://www.w3.org/2000/svg" xmlns:xlink="http://www.w3.org/1999/xlink">
    <title>Group 10</title>
    <defs>
        <polygon id="path-1" points="0 0 72 0 72 72 0 72"></polygon>
    </defs>
    <g id="Desktop" stroke="none" stroke-width="1" fill="none" fill-rule="evenodd">
        <g id="Quality-Data-Landing-Page_v3a" transform="translate(-271.000000, -2485.000000)">
            <g id="Group-10" transform="translate(271.000000, 2485.000000)">
                <g id="Group-3">
                    <mask id="mask-2" fill="white">
                        <use xlink:href="#path-1"></use>
                    </mask>
                    <g id="Clip-2"></g>
                    <path d="M70.5938523,34.5940027 L65.4964539,34.5940027 C65.4242357,33.0608714 65.234663,31.5382719 64.9292404,30.0487723 C64.5425724,28.1530457 63.9633225,26.2874099 63.2095455,24.5060286 C62.4693094,22.7547383 61.5530415,21.0681433 60.4863191,19.4898757 C59.4301285,17.9266534 58.2159607,16.4537039 56.8814293,15.1191725 C55.5453934,13.7831366 54.0754529,12.5689688 52.5092216,11.5127782 C50.9324585,10.4460558 49.2458635,9.53129245 47.4930686,8.79105632 C45.7131919,8.03727928 43.8490607,7.45802946 41.9503249,7.06985686 C40.4608254,6.76443423 38.9367213,6.57787065 37.4050946,6.50565249 L37.4050946,1.40674956 C37.4050946,0.630404346 36.7761948,0 35.9998495,0 C35.2235043,0 34.5931,0.630404346 34.5931,1.40674956 L34.5931,6.50565249 C33.0629777,6.57787065 31.5388737,6.76443423 30.0493742,7.06985686 C28.1521429,7.45802946 26.2865072,8.03727928 24.5051259,8.79105632 C22.7538355,9.53129245 21.0672406,10.4460558 19.4889729,11.5127782 C17.9257507,12.5689688 16.4543057,13.7831366 15.1182698,15.1191725 C13.7822338,16.4537039 12.5695706,17.9266534 11.5118755,19.4898757 C10.4451531,21.0681433 9.53038972,22.7547383 8.79015359,24.5060286 C8.03637655,26.2874099 7.45712674,28.1530457 7.06895413,30.0487723 C6.7635315,31.5397764 6.57546338,33.0608714 6.50174067,34.5940027 L1.40735137,34.5940027 C0.629501619,34.5940027 -0.000902726988,35.2229025 -0.000902726988,36.0007523 C-0.000902726988,36.7770975 0.629501619,37.4059973 1.40735137,37.4059973 L6.50174067,37.4059973 C6.57546338,38.9391286 6.7635315,40.4617281 7.06895413,41.9512277 C7.45712674,43.8484589 8.03637655,45.7140947 8.79015359,47.4939714 C9.53038972,49.2452617 10.4451531,50.9318567 11.5118755,52.5101243 C12.5695706,54.0748511 13.7822338,55.5462961 15.1182698,56.8808275 C16.4543057,58.2168634 17.9257507,59.4310312 19.4889729,60.4872218 C21.0672406,61.5539442 22.7538355,62.4687076 24.5051259,63.2104482 C26.2865072,63.9642253 28.1521429,64.5419705 30.0493742,64.9301431 C31.5388737,65.2355658 33.0614732,65.4251384 34.5931,65.4973566 L34.5931,70.594755 C34.5931,71.3695957 35.2235043,72 35.9998495,72 C36.7761948,72 37.4050946,71.3695957 37.4050946,70.594755 L37.4050946,65.4973566 C42.6664884,65.2506112 47.7368049,63.6166754 52.1451217,60.7294536 C52.7935806,60.3051719 52.9756306,59.4325358 52.5528534,58.7840769 C52.2910626,58.3853725 51.8502309,58.1461498 51.3747947,58.1461498 C51.1009675,58.1461498 50.834663,58.2273953 50.6044677,58.3778498 C46.2623509,61.2169261 41.2115934,62.718462 35.9998495,62.718462 C28.8652973,62.7169575 22.1565312,59.9395674 17.1072782,54.8933236 C12.0610344,49.8455752 9.2821398,43.1353046 9.28063525,36.0007523 C9.2821398,28.8646954 12.0610344,22.1544248 17.1072782,17.108181 C22.1565312,12.0604326 28.8652973,9.28304252 35.9998495,9.28153798 C43.1344018,9.28304252 49.8446724,12.0604326 54.8924209,17.108181 C59.9386647,22.1544248 62.7175593,28.8646954 62.7190638,36.0007523 C62.7190638,40.875478 61.3920552,45.6478947 58.8854832,49.7974297 C58.6913969,50.1178978 58.6342242,50.4970432 58.7229924,50.8626476 C58.8132651,51.2267475 59.0389468,51.5351792 59.3609194,51.7292655 C59.5820876,51.8616654 59.831842,51.9308745 60.0876147,51.9308745 C60.5856191,51.9308745 61.0339735,51.678111 61.2912507,51.2523247 C62.6543684,48.9985164 63.7060453,46.5761989 64.4191997,44.0470588 C65.0315495,41.8895413 65.3911357,39.6598057 65.4964539,37.4059973 L70.5938523,37.4059973 C71.3701975,37.4059973 72.0006018,36.7770975 72.0006018,36.0007523 C72.0006018,35.2229025 71.3701975,34.5940027 70.5938523,34.5940027" id="Fill-1" fill="#003B49" mask="url(#mask-2)"></path>
                </g>
                <path d="M56.2389886,54.1222443 C57.0168384,54.1222443 57.6457382,54.7526486 57.6457382,55.5289938 C57.6457382,56.305339 57.0168384,56.9342388 56.2389886,56.9342388 C55.4626434,56.9342388 54.8322391,56.305339 54.8322391,55.5289938 C54.8322391,54.7526486 55.4626434,54.1222443 56.2389886,54.1222443" id="Fill-4" fill="#003B49"></path>
                <path d="M35.9996991,55.6869711 C25.1444071,55.6869711 16.312728,46.855292 16.312728,36 C16.312728,25.144708 25.1444071,16.3130289 35.9996991,16.3130289 C46.8549911,16.3130289 55.6866701,25.144708 55.6866701,36 C55.6866701,46.855292 46.8549911,55.6869711 35.9996991,55.6869711 M35.9996991,13.5010344 C23.5932212,13.5010344 13.5007335,23.5935221 13.5007335,36 C13.5007335,48.4064779 23.5932212,58.5004702 35.9996991,58.5004702 C48.406177,58.5004702 58.5001693,48.4064779 58.5001693,36 C58.5001693,23.5935221 48.406177,13.5010344 35.9996991,13.5010344" id="Fill-6" fill="#003B49"></path>
                <path d="M35.9996991,43.0320928 C32.1224867,43.0320928 28.9689604,39.877062 28.9689604,35.9998495 C28.9689604,32.1226371 32.1224867,28.9691109 35.9996991,28.9691109 C39.8769115,28.9691109 43.0319423,32.1226371 43.0319423,35.9998495 C43.0319423,39.877062 39.8769115,43.0320928 35.9996991,43.0320928 M35.9996991,26.1556117 C30.5728053,26.1556117 26.1554613,30.5729558 26.1554613,35.9998495 C26.1554613,41.4282478 30.5728053,45.8440873 35.9996991,45.8440873 C41.4265928,45.8440873 45.8439369,41.4282478 45.8439369,35.9998495 C45.8439369,30.5729558 41.4265928,26.1556117 35.9996991,26.1556117" id="Fill-8" fill="#003B49"></path>
            </g>
        </g>
    </g>
</svg>